<mxfile host="app.diagrams.net" modified="2022-05-14T12:28:43.533Z" agent="5.0 (Macintosh; Intel Mac OS X 10_15_7) AppleWebKit/537.36 (KHTML, like Gecko) Chrome/101.0.4951.64 Safari/537.36" etag="zrWHAReTcgJnjf6ozaYC" version="18.0.4" type="github">
  <diagram id="XnLEoEguqBsA7q_8BDgQ" name="第 1 页">
    <mxGraphModel dx="569" dy="643" grid="1" gridSize="10" guides="1" tooltips="1" connect="1" arrows="1" fold="1" page="1" pageScale="1" pageWidth="827" pageHeight="1169" math="0" shadow="0">
      <root>
        <mxCell id="0" />
        <mxCell id="1" parent="0" />
        <mxCell id="u41qGXkgpkdFGmq_aCjc-4" value="" style="rounded=1;whiteSpace=wrap;html=1;fontSize=38;dashed=1;strokeWidth=3;fillColor=none;" vertex="1" parent="1">
          <mxGeometry x="210" y="160" width="210" height="140" as="geometry" />
        </mxCell>
        <mxCell id="u41qGXkgpkdFGmq_aCjc-1" value="&lt;b&gt;&lt;font style=&quot;font-size: 38px;&quot;&gt;Data&lt;/font&gt;&lt;/b&gt;" style="rounded=0;whiteSpace=wrap;html=1;fillColor=#6a00ff;fontColor=#ffffff;strokeColor=#3700CC;" vertex="1" parent="1">
          <mxGeometry x="230" y="170" width="170" height="70" as="geometry" />
        </mxCell>
        <mxCell id="u41qGXkgpkdFGmq_aCjc-2" value="&lt;font style=&quot;font-size: 32px;&quot;&gt;left&lt;/font&gt;" style="rounded=0;whiteSpace=wrap;html=1;fontSize=38;fillColor=#d80073;fontColor=#ffffff;strokeColor=#A50040;" vertex="1" parent="1">
          <mxGeometry x="230" y="248" width="80" height="40" as="geometry" />
        </mxCell>
        <mxCell id="u41qGXkgpkdFGmq_aCjc-3" value="&lt;font style=&quot;font-size: 32px;&quot;&gt;right&lt;/font&gt;" style="rounded=0;whiteSpace=wrap;html=1;fontSize=38;fillColor=#e51400;fontColor=#ffffff;strokeColor=#B20000;" vertex="1" parent="1">
          <mxGeometry x="320" y="248" width="80" height="40" as="geometry" />
        </mxCell>
        <mxCell id="u41qGXkgpkdFGmq_aCjc-5" value="" style="rounded=1;whiteSpace=wrap;html=1;fontSize=38;dashed=1;strokeWidth=3;fillColor=none;" vertex="1" parent="1">
          <mxGeometry x="20" y="370" width="210" height="140" as="geometry" />
        </mxCell>
        <mxCell id="u41qGXkgpkdFGmq_aCjc-6" value="&lt;b&gt;&lt;font style=&quot;font-size: 38px;&quot;&gt;Data&lt;/font&gt;&lt;/b&gt;" style="rounded=0;whiteSpace=wrap;html=1;fillColor=#6a00ff;fontColor=#ffffff;strokeColor=#3700CC;" vertex="1" parent="1">
          <mxGeometry x="40" y="380" width="170" height="70" as="geometry" />
        </mxCell>
        <mxCell id="u41qGXkgpkdFGmq_aCjc-7" value="&lt;font style=&quot;font-size: 32px;&quot;&gt;left&lt;/font&gt;" style="rounded=0;whiteSpace=wrap;html=1;fontSize=38;fillColor=#d80073;fontColor=#ffffff;strokeColor=#A50040;" vertex="1" parent="1">
          <mxGeometry x="40" y="458" width="80" height="40" as="geometry" />
        </mxCell>
        <mxCell id="u41qGXkgpkdFGmq_aCjc-8" value="&lt;font style=&quot;font-size: 32px;&quot;&gt;right&lt;/font&gt;" style="rounded=0;whiteSpace=wrap;html=1;fontSize=38;fillColor=#e51400;fontColor=#ffffff;strokeColor=#B20000;" vertex="1" parent="1">
          <mxGeometry x="130" y="458" width="80" height="40" as="geometry" />
        </mxCell>
        <mxCell id="u41qGXkgpkdFGmq_aCjc-9" value="" style="rounded=1;whiteSpace=wrap;html=1;fontSize=38;dashed=1;strokeWidth=3;fillColor=none;" vertex="1" parent="1">
          <mxGeometry x="400" y="370" width="210" height="140" as="geometry" />
        </mxCell>
        <mxCell id="u41qGXkgpkdFGmq_aCjc-10" value="&lt;b&gt;&lt;font style=&quot;font-size: 38px;&quot;&gt;Data&lt;/font&gt;&lt;/b&gt;" style="rounded=0;whiteSpace=wrap;html=1;fillColor=#6a00ff;fontColor=#ffffff;strokeColor=#3700CC;" vertex="1" parent="1">
          <mxGeometry x="420" y="380" width="170" height="70" as="geometry" />
        </mxCell>
        <mxCell id="u41qGXkgpkdFGmq_aCjc-11" value="&lt;font style=&quot;font-size: 32px;&quot;&gt;left&lt;/font&gt;" style="rounded=0;whiteSpace=wrap;html=1;fontSize=38;fillColor=#d80073;fontColor=#ffffff;strokeColor=#A50040;" vertex="1" parent="1">
          <mxGeometry x="420" y="458" width="80" height="40" as="geometry" />
        </mxCell>
        <mxCell id="u41qGXkgpkdFGmq_aCjc-12" value="&lt;font style=&quot;font-size: 32px;&quot;&gt;right&lt;/font&gt;" style="rounded=0;whiteSpace=wrap;html=1;fontSize=38;fillColor=#e51400;fontColor=#ffffff;strokeColor=#B20000;" vertex="1" parent="1">
          <mxGeometry x="510" y="458" width="80" height="40" as="geometry" />
        </mxCell>
        <mxCell id="u41qGXkgpkdFGmq_aCjc-13" value="" style="endArrow=classic;startArrow=classic;html=1;rounded=0;fontSize=32;strokeWidth=2;dashed=1;" edge="1" parent="1">
          <mxGeometry width="50" height="50" relative="1" as="geometry">
            <mxPoint x="130" y="360" as="sourcePoint" />
            <mxPoint x="200" y="290" as="targetPoint" />
          </mxGeometry>
        </mxCell>
        <mxCell id="u41qGXkgpkdFGmq_aCjc-14" value="" style="endArrow=classic;startArrow=classic;html=1;rounded=0;dashed=1;fontSize=32;strokeWidth=2;" edge="1" parent="1">
          <mxGeometry width="50" height="50" relative="1" as="geometry">
            <mxPoint x="490" y="360" as="sourcePoint" />
            <mxPoint x="430" y="290" as="targetPoint" />
          </mxGeometry>
        </mxCell>
        <mxCell id="u41qGXkgpkdFGmq_aCjc-15" value="Node A" style="text;html=1;align=center;verticalAlign=middle;resizable=0;points=[];autosize=1;strokeColor=none;fillColor=none;fontSize=32;" vertex="1" parent="1">
          <mxGeometry x="255" y="110" width="120" height="40" as="geometry" />
        </mxCell>
        <mxCell id="u41qGXkgpkdFGmq_aCjc-18" value="Node C" style="text;html=1;align=center;verticalAlign=middle;resizable=0;points=[];autosize=1;strokeColor=none;fillColor=none;fontSize=32;" vertex="1" parent="1">
          <mxGeometry x="460" y="520" width="120" height="40" as="geometry" />
        </mxCell>
        <mxCell id="u41qGXkgpkdFGmq_aCjc-19" value="Node B" style="text;html=1;align=center;verticalAlign=middle;resizable=0;points=[];autosize=1;strokeColor=none;fillColor=none;fontSize=32;" vertex="1" parent="1">
          <mxGeometry x="65" y="520" width="120" height="40" as="geometry" />
        </mxCell>
      </root>
    </mxGraphModel>
  </diagram>
</mxfile>
